{"title":"Rogue Trader 1999 DVDRip XviD titler","uid":9410050,"size":965889595,"categoryP":"video","categoryS":"movies","magnet":"?xt=urn:btih:85b6e5c23d0eeb1bf4b70fceaa9ef96c4d1b0243&amp;dn=Rogue+Trader+1999+DVDRip+XviD+titler&amp;tr=udp%3A%2F%2Ftracker.openbittorrent.com%3A80&amp;tr=udp%3A%2F%2Fopen.demonii.com%3A1337&amp;tr=udp%3A%2F%2Ftracker.coppersurfer.tk%3A6969&amp;tr=udp%3A%2F%2Fexodus.desync.com%3A6969","seeders":4,"leechers":1,"uploader":"movieZ.freak","files":4,"time":1388261894,"description":"SOURCE: DVD\n\n\n &lt;a href=&quot;\nhttp://www.imdb.com/title/tt0131566/&quot; rel=&quot;nofollow&quot; target=&quot;_NEW&quot;&gt;\nhttp://www.imdb.com/title/tt0131566/&lt;/a&gt;\n\n\n &lt;a href=&quot;\nhttp://en.wikipedia.org/wiki/Rogue_Trader_%28film%29&quot; rel=&quot;nofollow&quot; target=&quot;_NEW&quot;&gt;\nhttp://en.wikipedia.org/wiki/Rogue_Trader_%28film%29&lt;/a&gt;\n\n\n\n\n- SAMPLE: Yes\n\n\n- SUBTITLE: English\n\n\n- LANGUAGE / AUDIO: English\n\n\n\nDVD Menu\n----------------- &lt;a href=&quot;\nhttp://someimage.com/5sFK&quot; rel=&quot;nofollow&quot; target=&quot;_NEW&quot;&gt;\nhttp://someimage.com/5sFK&lt;/a&gt;\n\n\n\nSCREENSHOTS:\n-------------------   &lt;a href=&quot;\nhttp://someimage.com/3O0i&quot; rel=&quot;nofollow&quot; target=&quot;_NEW&quot;&gt;\nhttp://someimage.com/3O0i&lt;/a&gt;\n\n\n\nNOTE:\n----------\nGerman DVD with english audio, this is ripped with english audio only.\n\n\n\nDIRECTOR: James Dearden\n\n\n\nCAST: Ewan McGregor, Anna Friel, Tim McInnerny, Lee Ross, Simon Shepherd, John Standing,...\n\n\nPLOT:\n-----------\nBased on the tell-all autobiography by Nick Leeson, Rogue Trader tells the true story of how one man managed to bring down England's best respected merchant bank. Ewan McGregor plays Leeson, an ambitious young man from North London who is hired by the Barings Brothers Bank and sent to Indonesia to help untangle some problems with bearer bonds. Leeson does well enough to earn a transfer to Singapore, where he's put in charge of Barings' staff at the Singapore International Money Exchange. The Asian economy is booming and a variety of new financial strategies are changing the shape of the marketplace; while his superiors in London are a bit baffled by the range of possibilities, Leeson takes to the work like a duck to water, and he's soon trusted to do as he pleases. This eventually proves to be his downfall; without a separate team watching the accounts in the back office,\nLeeson is soon juggling figures to cover up for certain mistakes and gambling on the market with the bank's funds, not just their clients'. In 1995, Leeson's schemes finally collaped, leaving Barings bankrupt; Nick and his wife (another Barings employee) tried to flee the country to avoid arrest. Leeson was eventually sentenced to six-and-a-half years in a Singapore prison for his financial misdeeds; he was released after four years and four months, a week before Rogue Trader opened in British theaters. \n\n************************************\n\n- Duration: 1h 37mn\n\n- Bit rate: 1157 Kbps\n\n- Res: 640 x 352\n\n- AR: 16:9\n\n- FPS: 25.000\n\n- Audio: AC3, 128Kbps, 2 channels\n\n************************************\n\nGeneral\n-----------\nFormat : AVI\nFormat/Info : Audio Video Interleave\nFile size : 901 MiB\nDuration : 1h 37mn\nOverall bit rate : 1295 Kbps\nWriting application : VirtualDubMod 1.5.10.2\nWriting library : VirtualDub build 35491\n\n\nVideo\n-----------\nFormat : MPEG-4 Visual\nFormat profile : Advanced Simple@L5\nFormat settings, BVOP : 1\nFormat settings, QPel : No\nFormat settings, GMC : No warppoints\nFormat settings, Matrix : Custom\nCodec ID : XVID\nCodec ID/Hint : XviD\nDuration : 1h 37mn\nBit rate : 1157 Kbps\nWidth : 640 pixels\nHeight : 352 pixels\nDisplay aspect ratio : 16:9\nFrame rate : 25.000 fps\nColor space : YUV\nChroma subsampling : 4:2:0\nBit depth : 8 bits\nScan type : Progressive\nCompression mode : Lossy\nBits/(Pixel*Frame) : 0.205\nStream size : 805 MiB (89%)\nWriting library : XviD 65\n\n\nAudio\n---------\nFormat : AC-3\nFormat/Info : Audio Coding 3\nMode extension : CM (complete main)\nFormat settings, Endianness : Big\nCodec ID : 2000\nDuration : 1h 37mn\nBit rate mode : Constant\nBit rate : 128 Kbps\nChannel(s) : 2 channels\nChannel positions : Front: L R\nSampling rate : 48.0 KHz\nBit depth : 16 bits\nCompression mode : Lossy\nStream size : 89.1 MiB (10%)\nAlignment : Aligned on interleaves\nInterleave, duration : 40 ms (1.00 video frame)\nInterleave, preload duration : 512 ms","torrent":{"xt":"urn:btih:85b6e5c23d0eeb1bf4b70fceaa9ef96c4d1b0243","amp;dn":"Rogue+Trader+1999+DVDRip+XviD+titler","amp;tr":["udp%3A%2F%2Ftracker.openbittorrent.com%3A80","udp%3A%2F%2Fopen.demonii.com%3A1337","udp%3A%2F%2Ftracker.coppersurfer.tk%3A6969","udp%3A%2F%2Fexodus.desync.com%3A6969"],"infoHash":"85b6e5c23d0eeb1bf4b70fceaa9ef96c4d1b0243","infoHashBuffer":{"type":"Buffer","data":[133,182,229,194,61,14,235,27,244,183,15,206,170,158,249,108,77,27,2,67]},"announce":[],"urlList":[]}}